<?xml version="1.0" encoding="utf-8"?>
<!-- Generator: Adobe Illustrator 24.1.1, SVG Export Plug-In . SVG Version: 6.00 Build 0)  -->
<svg version="1.1" id="Capa_1" xmlns="http://www.w3.org/2000/svg" xmlns:xlink="http://www.w3.org/1999/xlink" x="0px" y="0px"
	 viewBox="0 0 192.8 192.8" style="enable-background:new 0 0 192.8 192.8;" xml:space="preserve">
<style type="text/css">
	.st0{fill-rule:evenodd;clip-rule:evenodd;fill:none;}
	.st1{fill-rule:evenodd;clip-rule:evenodd;fill:#FFFFFF;}
</style>
<g>
	<polygon class="st0" points="0,0 192.8,0 192.8,192.8 0,192.8 	"/>
	<path class="st1" d="M173.1,73c-5-4.2-11.7-6.9-18.3-6.9c-7.4,0-14.3,2.3-20.1,6.8c-5.4-4.3-12-6.8-19-6.8c-7.1,0-14,2.1-19.4,6.8
		C91,68.4,84.2,66,77.1,66c-6.9,0-13.8,2.4-19,6.8C52.4,68,45.4,66,38,66c-7.6,0-15.1,3.3-20.4,8.6c-6,5.9-9.1,14.1-9.1,22.5
		c0,16.3,14.5,29.6,30.6,29.6c7,0,13.4-2.5,18.9-6.8c5.3,4.6,12.1,6.8,19.1,6.8s13.8-2.5,19.3-6.8c5.5,4.7,12.3,6.9,19.5,6.9
		c6.9,0,13.6-2.7,18.9-6.9c5.4,4.7,12.2,6.9,19.3,6.9c16.8,0,30.2-13.8,30.2-30.4C184.3,87.4,180.1,78.7,173.1,73z M51.3,112.2
		c-3.5,2.7-7.7,4.3-12.2,4.3c-10.5,0-20.5-8.6-20.5-19.5c0-10.7,8.3-21,19.4-21c4.8,0,9.4,1.6,13.3,4.3c-3.1,5.2-4.5,10.8-4.5,16.9
		C46.9,102.5,48.6,107.7,51.3,112.2z M57.9,102.7c-0.7-2.2-1-4.4-1-6.7c0-2.1,0.4-4.2,1-6.1c0.6,2,1,4.1,1,6.3
		C59,98.4,58.8,100.6,57.9,102.7z M89.7,112.2c-3.4,2.5-7.3,4.3-11.6,4.3c-5,0-9.6-1.2-13.5-4.3c2.7-4.3,4.5-9.5,4.5-14.6
		c0-6.1-1.2-11.9-4.4-17.2c3.6-2.8,7.8-4.4,12.4-4.4s9,1.7,12.7,4.4c-2.7,4.6-4.5,9.8-4.5,15.1C85.3,101.6,86.6,107.1,89.7,112.2z
		 M96.3,102.8c-0.9-2.1-1-4.3-1-6.5c0-2.1,0.3-4.3,1-6.3c0.8,2.1,1.1,4.1,1.1,6.3C97.4,98.4,97,100.7,96.3,102.8z M128.1,112.2
		c-3.3,2.6-7.5,4.4-11.7,4.4c-4.9,0-9.5-1.4-13.4-4.3c2.8-4.5,4.5-9.8,4.5-15.2c0-6.1-1.3-11.4-4.5-16.6c3.6-2.8,7.9-4.4,12.5-4.4
		s9,1.6,12.6,4.4c-3,5-4.5,10.5-4.5,16.4C123.6,102.3,125.3,107.6,128.1,112.2z M134.7,102.8c-0.7-2.2-1-4.4-1-6.7
		c0-2.1,0.4-4.1,1-6.1c0.6,2,1,4.1,1,6.2C135.8,98.5,135.4,100.6,134.7,102.8z M154,116.7c-4.6,0-9-1.6-12.6-4.4
		c2.6-5,4.5-10.4,4.5-16s-1.7-11-4.5-15.8c3.6-2.7,7.9-4.4,12.4-4.4c10.9,0,20.4,9.2,20.4,20.2C174.2,107.5,165.3,116.7,154,116.7z"
		/>
</g>
</svg>
