<?xml version="1.0" encoding="utf-8"?>
<!-- Generator: Adobe Illustrator 24.1.1, SVG Export Plug-In . SVG Version: 6.00 Build 0)  -->
<svg version="1.1"
	 id="svg2" xmlns:cc="http://creativecommons.org/ns#" xmlns:dc="http://purl.org/dc/elements/1.1/" xmlns:rdf="http://www.w3.org/1999/02/22-rdf-syntax-ns#" xmlns:svg="http://www.w3.org/2000/svg"
	 xmlns="http://www.w3.org/2000/svg" xmlns:xlink="http://www.w3.org/1999/xlink" x="0px" y="0px" viewBox="0 0 605.1 607.7"
	 style="enable-background:new 0 0 605.1 607.7;" xml:space="preserve">
<style type="text/css">
	.st0{fill-rule:evenodd;clip-rule:evenodd;fill:#FFFFFF;}
</style>
<g id="g10" transform="matrix(1.25,0,0,-1.25,0,607.65)">
	<g id="g12" transform="scale(0.1,0.1)">
		<path class="st0" d="M4432.7,4236.7c-83.5,93.5-203,176.7-336,243.4c-486.8,244.3-1357.3,422.3-1922.3,372.6l0,0
			c-373-32.8-630.6-66.9-990-166.7c-284.2-78.9-606.5-204.3-792-361.8c-107.9-91.7-185.1-171.4-207.4-366.9
			c-47-412,134.2-1095.8,258.9-1465.3c165.6-490.9,292.7-758.2,566-1161.9c78.7-116.3,159-229.8,241.7-337.7
			c173.8-226.9,346.2-433.2,534.6-619.1c97.1-95.8,192.3-183.3,310.7-263.7c126.4-85.9,251.6-157.9,427-68.1
			c395.4,202.4,882.2,824.8,1130,1177.3c359.2,511.1,544.7,967.9,723.8,1583.4c82.4,283.2,169.7,659.7,176.2,979.5
			C4558.1,3990.7,4539.5,4117.2,4432.7,4236.7z M3848.3,1788.1c-241.1-464.5-755.8-1147.2-1154.1-1479
			c-59.3-49.4-140.9-113.3-224.2-150.9c-115.5-52.1-188.5-15.4-279.7,40c-304.1,184.6-696.9,676.9-911.6,967.2
			c-71.1,96.2-161.9,232.5-227.5,337.2c-45.2,72.1-53.3,66.4-52.3,132.3c5.8,390.3,419.7,659.3,713.6,789.8
			c344.1,152.8,767,261.1,1181.1,322.4c223,33,440.1,58.5,669.3,81c68.4,6.7,636.1,49.5,704.7,42.1
			C4164.8,2497.1,4012.7,2104.8,3848.3,1788.1z M4367.3,3279.3c-13.2-70.6-32.3-137.2-45.7-207.1c-77.3-4.7-181.7,2.5-260.6,5.9
			c-84.9,3.6-177,3.8-263.7,4.2c-759.3,3.6-1770.6-15.3-2494.8-169.3c-203.1-43.2-423.3-101.3-600.9-197.6
			c-89.2-48.4-128.6-92.3-155.2-106.9c-106.5,342.4-275.1,914-231.3,1291.4c20.5,176.9,88.6,247.1,186.9,324.4
			c338.9,266.7,1033.1,422.1,1574.3,469.8c551.4,48.5,1268.6-61.6,1768.6-261.5c208.9-83.5,506.6-218.1,562-460
			C4452.4,3773.8,4405.3,3483.1,4367.3,3279.3z"/>
		<path id="path22" class="st0" d="M1974.8,4010.8l-241.1,0.4c-15.8-100.2-54.2-264.6-77.7-376.3c-9-42.7-18.2-86.7-55.6-95.6
			c-60.9-14.4-49.1,54.5-40.7,94.6c9.2,44.2,17,82.3,25.9,125.4c15.1,72.6,44.5,180.1,50.9,251.4l-239,0.4
			c-9.3-16.8-82.5-375.9-90.2-421.1c-31.7-187.1,117.7-230.4,285-220.6c297.2,17.4,295.9,216.3,339.5,423.4
			C1944.9,3854.9,1970.7,3950.8,1974.8,4010.8L1974.8,4010.8"/>
		<path id="path26" class="st0" d="M2554.6,3614.8l-227.5,2c-9.8-38.8-44.7-115.3-100.2-76.8c-45.9,31.8,10.4,264.8,51.4,304.9
			c15.3,15,48.4,27.2,72.5,13.5c22.5-12.8,18.3-47.5,17.6-78.7l221.7-0.1c12,112.1-1.8,170.4-75.7,213.4
			c-137.2,79.9-471.2,48.6-541.1-286.6c-42.4-203.5,29.8-334.2,232-337.9C2387.6,3365.1,2524.6,3461.5,2554.6,3614.8L2554.6,3614.8"
			/>
		<path id="path28" class="st0" d="M3254.1,3843.3l147.4-0.6c2.2-55.2-93.5-415.5-88.8-457.9l238.4-0.4
			c20.1,62.9,35.8,162.9,49.1,228.6c9.2,45.2,34.4,200.8,51,228.1l144.5,0.9c9,16.1,34.1,142.5,36.7,168.7l-543.4,0.2L3254.1,3843.3
			L3254.1,3843.3"/>
		<path id="path30" class="st0" d="M3748.9,3385.9l243.6-0.7l129.3,625.1l-242.9,0.8L3748.9,3385.9L3748.9,3385.9"/>
		<path class="st0" d="M1167.2,3984.4c-65.6,28.1-128.3,26.7-207.7,26.7c-65.8,0-172.9,6.3-233.7-1.7l-131.4-623.8
			c281-3.7,569.2-48.6,665.6,270.5C1303.6,3800.5,1284.7,3934.1,1167.2,3984.4z M1013.4,3674.5c-19.6-85.7-46.8-152.6-151.2-145.6v0
			l72.9,338.7C1061.5,3876.4,1035.1,3768.9,1013.4,3674.5z"/>
		<path class="st0" d="M3153.1,4009.2c-74.6,5.3-229.7,2-316.1,1.8l-162.6-313.9c-23.6-44-155-286.4-159.6-312.5l228.9-0.1
			l46.6,99.7l174.5,0.6l2.9-95.6c26.8-9.5,197.8-3.9,251.2-3.7L3153.1,4009.2z M2960.5,3638.9l-98.9,0.7h0
			c6.3,28.2,85.5,209.9,99.7,225.2L2960.5,3638.9z"/>
	</g>
</g>
</svg>
