<?xml version="1.0" encoding="utf-8"?>
<!-- Generator: Adobe Illustrator 24.1.1, SVG Export Plug-In . SVG Version: 6.00 Build 0)  -->
<svg version="1.1" id="Logo_FINAL" xmlns="http://www.w3.org/2000/svg" xmlns:xlink="http://www.w3.org/1999/xlink" x="0px" y="0px"
	 viewBox="0 0 774.1 772.1" style="enable-background:new 0 0 774.1 772.1;" xml:space="preserve">
<style type="text/css">
	.st0{fill:#FFFFFF;}
	.st1{opacity:0.1;fill:#FFFFFF;enable-background:new    ;}
</style>
<g>
	<g>
		<g>
			<path class="st0" d="M639.3,360.4v19.8h-63.1v-5.5c0-8.6,1.4-14.4,11.5-14.4H639.3z M583.8,348.2c-16.6,0-24.2,8.9-24.2,23v39.8
				h16.6v-18.3h63.1v18.3H656v-62.7H583.8z M676.2,348.2v12.2h39v50.4h16.6v-50.4h39v-12.2C770.8,348.2,676.2,348.2,676.2,348.2z
				 M453.2,386.7c0,8.8,1.8,11.9,11.5,11.9h69.2v12.2h-73.1c-16.6,0-24.3-7.5-24.3-21.6v-41.2H534v12.2h-80.7v12.3h77.4v12h-77.4
				L453.2,386.7L453.2,386.7z M334.6,370c-5.1-0.4-6-2.2-6-5.2c0-2.9,1.6-4.4,5.4-4.4h76.4v-12.1h-78.3c-11.2,0-18.8,4.3-18.8,16.8
				c0,12.5,5.7,16.8,18.5,17.8l62,5.2c4.8,0.4,6.1,2.1,6.1,5.4c0,3.3-1.5,5.2-5.7,5.2h-77.7v12.2h79.1c13.6,0,19.6-5.4,19.6-18.3
				c0-11.7-5.4-16.4-18.7-17.5L334.6,370z"/>
		</g>
	</g>
</g>
<g>
	<g>
		<g>
			<path class="st0" d="M289.3,398.2L22.5,350.8c0,0,0.7-29.9,1.3-45.7c0.6-15.8,3.9-25.4,10.4-31.2c9-8,19.5-9.9,44.6-11.2
				c58.1-3.2,117.3-2.7,191.4,2.5c7.7,0.6,10.7,2,12.1,3c3.3,2.2,3.7,4.8,4.6,18c0.7,10.6,2.4,46.2,2.4,46.2s-87.5-3.2-130.6-3.2
				c-12.1,0-21.9,0.1-29.9,0.2c-5.3,0.1-7.8,0.6-9.8,1.6l170.3,28.9L289.3,398.2L289.3,398.2z"/>
		</g>
		<g>
			<path class="st0" d="M22.3,360.9l266.8,47.4c0,0-0.7,29.9-1.3,45.7c-0.6,15.8-3.9,25.4-10.4,31.2c-9,8-19.5,9.9-44.6,11.2
				c-58.1,3.2-117.3,2.7-191.4-2.5c-7.7-0.6-10.7-2-12.1-3c-3.3-2.2-3.7-4.8-4.6-18c-0.6-10.5-2.3-46.1-2.3-46.1s87.5,3.2,130.6,3.2
				c12.1,0,21.9-0.1,29.9-0.2c5.3-0.1,7.8-0.6,9.8-1.6l-170.3-29V360.9z"/>
		</g>
	</g>
	<g id="did_2_">
		<g>
			<path class="st0" d="M289.3,398.2L22.5,350.8c0,0,0.7-29.9,1.3-45.7c0.6-15.8,3.9-25.4,10.4-31.2c9-8,19.5-9.9,44.6-11.2
				c58.1-3.2,117.3-2.7,191.4,2.5c7.7,0.6,10.7,2,12.1,3c3.3,2.2,3.7,4.8,4.6,18c0.7,10.6,2.4,46.2,2.4,46.2s-87.5-3.2-130.6-3.2
				c-12.1,0-21.9,0.1-29.9,0.2c-5.3,0.1-7.8,0.6-9.8,1.6l170.3,28.9L289.3,398.2L289.3,398.2z M22.3,360.9l266.8,47.4
				c0,0-0.7,29.9-1.3,45.7c-0.6,15.8-3.9,25.4-10.4,31.2c-9,8-19.5,9.9-44.6,11.2c-58.1,3.2-117.3,2.7-191.4-2.5
				c-7.7-0.6-10.7-2-12.1-3c-3.3-2.2-3.7-4.8-4.6-18c-0.6-10.5-2.3-46.1-2.3-46.1s87.5,3.2,130.6,3.2c12.1,0,21.9-0.1,29.9-0.2
				c5.3-0.1,7.8-0.6,9.8-1.6l-170.3-29V360.9z M25.1,364.2v32.6l173.5,29.5c0,0-2.4,3.2-4.8,4.3c-2.5,1.1-5.6,1.7-11,1.9
				c-8,0.2-17.8,0.2-29.9,0.2c-38.1,0-111.7-2.5-127.6-3.1c0.4,8.9,1.7,34.4,2.3,43.1c0.9,13.1,1.3,14.4,3.4,15.8
				c0.7,0.5,3,2,10.7,2.5c42.8,3,81.4,4.4,117.8,4.4c24.6,0,48.6-0.7,73.2-2c24.4-1.3,34.5-3.1,42.9-10.6c6-5.2,8.9-14.6,9.4-29.2
				c0.4-13,1.1-35.8,1.2-43.2L25.1,364.2z M286.4,394.8v-32.6L113,332.7c0,0,2.4-3.2,4.8-4.3c2.4-1.1,5.6-1.7,11-1.9
				c8-0.2,17.8-0.2,29.9-0.2c38.1,0,111.7,2.5,127.6,3.1c-0.4-8.9-1.7-34.4-2.3-43.1c-0.9-13.1-1.3-14.4-3.4-15.7
				c-0.7-0.5-3-2-10.7-2.5c-42.8-3-81.4-4.4-117.8-4.4c-24.6,0-48.6,0.7-73.2,2c-24.3,1.2-34.4,3-42.8,10.4
				c-6,5.3-8.9,14.6-9.4,29.3c-0.5,13-1.1,35.8-1.2,43.2L286.4,394.8z"/>
			<path class="st0" d="M162.7,444.1c-1.6,0-9.3,0-11,0c-35.4,0-73.4-0.2-119.7-2.8l-6.7-11.5l1.8,0.1l7.7,8.9
				c40,2.2,76.8,2.7,117,2.7c1.6,0,9.3,0,11,0c5.7,0,12.3,0,18.2-0.2c20.3-0.7,26.5-2.8,40.4-16.9l5-0.5l-2.1,2.1
				c-15,15.5-21.2,17.1-43.3,17.8C175.1,444.1,168.5,444.1,162.7,444.1L162.7,444.1z"/>
			<polygon class="st0" points="286.2,410.6 25.1,364.2 25.1,365.9 29.7,368.2 29.7,389.6 25.1,394.8 25.1,396.9 32.3,391 
				32.3,367.2 282.5,411.6 			"/>
			<path class="st0" d="M279.7,411.1c-0.2,4.3-0.3,9.8-0.5,14.8c-0.2,4.3-0.2,8-0.4,11.4c-0.2,4.7-0.4,9.3-0.7,15.7
				c-0.7,16.2-4.3,21.4-11.4,25.7c-6.7,4.1-14.6,4.7-38.5,5.8c-24.3,1.2-50.2,1.9-77.1,2.1c-2.1,0-4.1,0-6.2,0
				c-31.5,0-60.3-1.7-96.4-4.6c-6.2-0.5-10.1-1-11.8-2.1c-1.9-1.2-2.4-1.6-3-9.3c-0.1-1.1-0.2-2.2-0.2-3.3c-0.2-3-0.4-5.6-0.6-9.5
				c-0.2-4-0.4-8-1-16.6l-2.4-4c0.5,9.3,0.8,17.1,1,21.2c0.2,3.7,0.2,6.2,0.4,9.1v0.3c0.1,0.9,0.1,1.9,0.2,2.9
				c0.5,7.8,1.1,9.3,4.1,11.3c2.2,1.5,6.3,2.1,13,2.5c36.2,2.8,65,4.6,96.6,4.6c2.1,0,4.1,0,6.2,0c26.9-0.2,52.9-0.9,77.3-2.1
				c24.4-1.2,32.5-1.8,39.8-6.2c7.9-4.8,12-10.4,12.6-27.8c0.2-6.2,0.4-10.9,0.7-15.4v-0.2c0.3-7.3,0.7-15.1,1.1-25.8L279.7,411.1z"
				/>
			<g>
				<path class="st0" d="M279.8,321.4L279.8,321.4h-1.1c-38.1-1.9-77-1.6-120.9-1.6c-2.8,0-6.2,0-10,0.1
					c-11.6,0.2-20.5,0.2-25.8,1.1c-11.6,2.1-11,8-6.6,8.9c0.7-0.7,1.6-1.2,2.4-1.6c2.4-1.1,5.6-1.7,11-1.9c8-0.2,17.8-0.2,29.9-0.2
					c37.2,0,108,2.4,126.3,3C283.6,327.1,280.5,322.4,279.8,321.4z"/>
			</g>
			<path class="st0" d="M274.7,282.1l1.5-2.1l-0.4-0.2c-1.9-1.3-5.9-2.1-12.5-2.6c-34.1-2.4-71.9-3.9-98.7-3.9c-1.8,0-3.6,0-5.4,0
				c-5.7,0-11,0.1-16.1,0.1c-25.8,0.2-45.9,0.4-60.8,1.2c-1.2,0.1-2.5,0.2-3.7,0.2c-21.2,1.1-31.7,1.7-40.1,9.1
				c-5.6,5-7.9,11.7-8.4,24.9l-0.2,6.3c-0.4,10-0.6,16.2-1,29.6c-0.7,0.3-2.7,1.2-3.4,1.6l-0.1,2.1l6.1-2.5l0.1-3
				c0.3-11.6,0.6-18.7,1-27.7l0.2-6.3c0.5-12.4,2.5-18.6,7.5-23c7.6-6.8,18-7.3,38.5-8.4c1.2-0.1,2.5-0.2,3.7-0.2
				c14.8-0.8,34.9-1.1,60.6-1.2c5.1,0,10.4-0.1,16.1-0.1c1.7,0,3.5,0,5.3,0c26.7,0,64.5,1.5,98.5,3.9c6,0.4,9.8,1.1,11.3,2.1
				L274.7,282.1L274.7,282.1z"/>
			<path class="st0" d="M29.8,315l0.2-6.3c0.6-13.2,2.8-19.9,8.4-24.9c1.2-1.1,2.5-2.1,3.9-2.9c-1.2-2.5-1.6-4.8-0.7-6.5
				c0.7-1.4,3.7-3.9,10-6.2c-6.7,1.6-11.4,3.9-15.6,7.6c-6,5.3-8.9,14.6-9.4,29.3c-0.4,11.9-1,32.1-1.1,41.1
				c0.5-0.2,2.5-1.1,3.4-1.6C29.2,331.3,29.4,325,29.8,315z"/>
			<path class="st0" d="M277.3,281c1.7-2.6,4.3-2.7,6.6,3.2c-0.8-11.2-1.3-12.5-3.2-13.8c-0.7-0.5-3-2-10.7-2.5
				c-42.8-3-81.4-4.4-117.8-4.4c-24.6,0-48.6,0.7-73.2,2c-12.1,0.7-20.7,1.4-27.3,2.9c-6.3,2.3-9.3,4.8-10,6.2
				c-0.9,1.7-0.5,4.1,0.7,6.5c7.8-4.7,18.2-5.2,36.2-6.2c1.2-0.1,2.5-0.2,3.7-0.2c14.8-0.8,35-1.1,60.8-1.2c5.1,0,10.4-0.1,16.1-0.1
				c1.7,0,3.5,0,5.4,0c26.8,0,64.6,1.5,98.7,3.9c6.6,0.5,10.7,1.3,12.5,2.6l0.4,0.2C276.6,280.2,277,280.7,277.3,281z"/>
			<path class="st0" d="M286.2,327.6l-5.2-8.7c-0.1-7.1-0.7-21.6-1.2-27.7c-0.6-5.8-0.8-8.3-2.5-10.1c-0.3-0.4-0.7-0.7-1.2-1.1
				l-1.5,2.1c1.6,1.2,1.9,2.3,2.5,9.3c0.6,6.3,1.6,22.2,1.6,28.5l6.2,9.3l1.3,0.1L286.2,327.6z"/>
			<path class="st0" d="M283.9,284.2c-2.3-5.8-4.9-5.8-6.6-3.2c1.7,1.9,1.9,4.3,2.5,10.1c0.6,6.1,1.1,20.7,1.2,27.7l5.2,8.7
				c-0.5-10-1.6-33.2-2.2-41.4"/>
			<path class="st0" d="M278.8,319.9c-35.6-1.7-74-2.7-120.9-2.7c-9.3,0-27.6,0.3-36,0.5c-14.2,0.2-16.6,9.1-16.7,12.4l174.9,40.6
				v21.7l6.3,2.5l-261-46.4l6.1-2.5l0.1-3c0,0,0.6-18.7,1-27.7l0.2-6.3c0.5-12.4,2.5-18.6,7.5-23c7.6-6.8,18-7.3,38.5-8.4
				c1.2-0.1,2.5-0.2,3.7-0.2c14.8-0.8,34.9-1.1,60.6-1.2c5.1,0,10.4-0.1,16.1-0.1c1.7,0,3.5,0,5.3,0c26.7,0,64.5,1.5,98.5,3.9
				c6,0.4,9.8,1.1,11.3,2.1l0.4,0.2c0,0,0,0,0.1,0l0.1,0.1l0,0c0.1,0,0.1,0.1,0.2,0.1l0,0c0.1,0,0.1,0.1,0.2,0.1l0,0
				c0.1,0,0.1,0.1,0.1,0.1l0,0c0,0.1,0.1,0.1,0.1,0.1l0,0c1,1.1,1.2,2.5,1.7,7.5c0,0.4,0.1,0.8,0.1,1.2
				C277.8,297.6,278.8,313.5,278.8,319.9"/>
			<path class="st0" d="M278.8,319.9c-35.6-1.7-74-2.7-120.9-2.7c-9.3,0-27.6,0.3-36,0.5c-14.2,0.2-16.6,9.1-16.7,12.4l174.9,40.6
				v21.7l6.3,2.5l-261-46.4l6.1-2.5l0.1-3c0,0,0.6-18.7,1-27.7l0.2-6.3c0.5-12.4,2.5-18.6,7.5-23c7.6-6.8,18-7.3,38.5-8.4
				c1.2-0.1,2.5-0.2,3.7-0.2c14.8-0.8,34.9-1.1,60.6-1.2c5.1,0,10.4-0.1,16.1-0.1c1.7,0,3.5,0,5.3,0c26.7,0,64.5,1.5,98.5,3.9
				c6,0.4,9.8,1.1,11.3,2.1l0.4,0.2c0,0,0,0,0.1,0l0.1,0.1l0,0c0.1,0,0.1,0.1,0.2,0.1l0,0c0.1,0,0.1,0.1,0.2,0.1l0,0
				c0.1,0,0.1,0.1,0.1,0.1l0,0c0,0.1,0.1,0.1,0.1,0.1l0,0c1,1.1,1.2,2.5,1.7,7.5c0,0.4,0.1,0.8,0.1,1.2
				C277.8,297.6,278.8,313.5,278.8,319.9"/>
			<polygon class="st0" points="25.1,365.9 29.7,368.2 29.7,389.6 25.1,394.8 			"/>
			<path class="st0" d="M259.8,490.8c1.9-1.2,2.8-2.4,3.1-3c0.7-1.3,0.1-2.5-1.1-3.9c-6.5,2.1-15.6,2.5-33.6,3.4
				c-24.3,1.2-50.3,1.9-77.3,2.1c-2.1,0-4.1,0-6.2,0c-31.6,0-60.4-1.7-96.6-4.6c-6.7-0.5-10.8-1.1-13-2.5c-0.7-0.5-1.3-1-1.8-1.5
				c-0.2,0.2-0.6,0.6-1,0.9c-2.3,2.1-3.5,1.6-4.4-1.6c0.6,6.6,1.2,7.5,2.8,8.6c0.7,0.5,3,2,10.7,2.5c42.8,3,81.4,4.4,117.8,4.4
				c24.6,0,48.6-0.7,73.2-2C244.7,493,253.3,492.2,259.8,490.8L259.8,490.8z"/>
			<path class="st0" d="M31,467.9v-0.3c-0.2-3-0.2-5.4-0.4-9.1c-0.2-4.1-0.5-12-1-21.2l-4.3-7.4c0.4,8.9,1.7,34.4,2.3,43.1l0.6,7.1
				c0.9,3.3,2.1,3.7,4.4,1.6c0.4-0.4,0.7-0.7,1-0.9c-1.5-1.6-1.9-4-2.3-9.8C31.2,469.8,31.1,468.9,31,467.9z"/>
			<path class="st0" d="M282.5,411.6c-0.4,10.7-0.7,18.5-1.1,25.8v0.2c-0.2,4.5-0.4,9.2-0.7,15.4c-0.7,17.5-4.8,23-12.6,27.8
				c-1.9,1.1-3.9,2.1-6.1,2.8c1.1,1.4,1.7,2.6,1.1,3.9c-0.3,0.7-1.3,1.9-3.1,3c6.7-1.6,11.5-3.9,15.7-7.6c6-5.2,8.9-14.6,9.4-29.2
				c0.4-13,1.1-35.8,1.2-43.2L282.5,411.6z"/>
			<path class="st0" d="M278.8,437.4c-0.2,4.7-0.4,9.3-0.7,15.7c-0.7,16.2-4.3,21.4-11.4,25.7c-6.7,4.1-14.6,4.7-38.5,5.8
				c-24.3,1.2-50.2,1.9-77.1,2.1c-2.1,0-4.1,0-6.2,0c-31.5,0-60.3-1.7-96.4-4.6c-6.2-0.5-10.1-1-11.8-2.1c-1.9-1.2-2.4-1.6-3-9.3
				c-0.1-1.1-0.2-2.2-0.2-3.3c-0.2-3-0.4-5.6-0.6-9.5c-0.2-4-0.4-8-1-16.6c46.4,2.5,84.4,2.8,119.7,2.8c1.6,0,9.4,0,11,0
				c5.7,0,12.4,0,18.3-0.2c22.1-0.7,28.3-2.3,43.3-17.8l2.1-2.1L32.3,391v-23.9l247.5,44l0,0l0,0c-0.2,4.3-0.3,9.8-0.5,14.8
				C279,430.2,278.9,433.9,278.8,437.4z"/>
			<path class="st0" d="M198.5,437.3c-0.1,0.9-1.3,2.2-5.8,3.2c11.7-1.4,17.8-5.2,28.6-16.1l-22.8,2.1c0,0-2.4,3.2-4.8,4.3
				c-1.6,0.7-3.5,1.3-6.2,1.6c4.8,1.1,6.4,1.6,8.4,2.5C197.5,435.4,198.6,436.6,198.5,437.3z"/>
			<path class="st0" d="M192.8,440.5c4.5-1,5.7-2.3,5.8-3.2c0.1-0.7-1.1-1.9-2.6-2.5c-1.9-0.7-3.5-1.3-8.4-2.5c0,0-3,0.2-4.8,0.2
				c-8,0.2-17.8,0.2-29.9,0.2c-36.8,0-106.9-2.4-125.8-3l0,0l7.7,8.9c40,2.2,76.8,2.7,117,2.7c1.6,0,9.3,0,11,0
				c5.7,0,12.3,0,18.2-0.2C185.5,441.1,189.4,440.9,192.8,440.5z"/>
			<g>
				<path class="st0" d="M279.6,367.7l4.3-6l-156.1-26.6c16.2,5.2,59.5,15.3,92.6,22.8C218.8,357.6,274.3,366.8,279.6,367.7z"/>
			</g>
			<g>
				<path class="st0" d="M181,418.9c-4.3-0.8-7.5-1.6-11.1-2.1c-1.6-0.2-84.6-14.4-139.9-24l-4.9,4l173.5,29.5
					C196.1,423.6,187.5,420.2,181,418.9z"/>
			</g>
			<path class="st0" d="M181,418.9c-4.3-0.8-7.5-1.6-11.1-2.1c-1.6-0.2-84.6-14.4-139.9-24l2.2-1.8l194.2,32.9l-27.8,2.5
				C197,424.3,189,420.5,181,418.9z"/>
			<path class="st0" d="M278.8,319.9c-35.6-1.7-74-2.7-120.9-2.7c-9.3,0-27.6,0.3-36,0.5c-17.6,0.3-27.8,8.8-35.9,17.8l-1.5,1.5
				l28.9-5c0,0,0.5-0.7,2-2.1c-4.3-0.8-4.9-6.8,6.6-8.9c5.2-1,14.3-1,25.8-1.1c3.8-0.1,7.3-0.1,10-0.1c43.9,0,82.7-0.2,120.9,1.6
				l1.1,0.1L278.8,319.9z"/>
			<path class="st0" d="M89.2,336.2c11.9,2.1,79.7,13.2,131.2,21.7c-33.1-7.5-76.4-17.5-92.6-22.8l-14.3-3.2L89.2,336.2z"/>
			<path class="st0" d="M278.8,437.4c-0.2,4.7-0.4,9.3-0.7,15.7c-0.7,16.2-4.3,21.4-11.4,25.7c-6.7,4.1-14.6,4.7-38.5,5.8
				c-24.3,1.2-50.2,1.9-77.1,2.1c-2.1,0-4.1,0-6.2,0c-31.5,0-60.3-1.7-96.4-4.6c-6.2-0.5-10.1-1-11.8-2.1c-1.9-1.2-2.4-1.6-3-9.3
				c-0.1-1.1-0.2-2.2-0.2-3.3c-0.2-3-0.4-5.6-0.6-9.5c-0.2-4-0.4-8-1-16.6c46.4,2.5,84.4,2.8,119.7,2.8c1.6,0,9.4,0,11,0
				c5.7,0,12.4,0,18.3-0.2c22.1-0.7,28.3-2.3,43.3-17.8l2.1-2.1L32.3,391v-23.9l247.5,44l0,0l0,0c-0.2,4.3-0.3,9.8-0.5,14.8
				C279,430.2,278.9,433.9,278.8,437.4z"/>
			<path class="st0" d="M84.6,336.9l4.6-0.8c18.8,3.2,176.6,29.1,190.4,31.5l4.3-6l2.5,0.4l-6.3,8.4L84.6,336.9z"/>
			<path class="st1" d="M266.7,478.7c7.1-4.3,10.7-9.4,11.4-25.7c0.2-6.3,0.5-11.1,0.7-15.7c0.2-3.4,0.2-7.1,0.4-11.4
				c0.2-5,0.3-10.5,0.5-14.8l0,0l-70.3-12.5c-12.2,4.2-23.1,9.9-32.2,17l49.2,8.4l-2.1,2.1c-15,15.5-21.2,17.1-43.3,17.8
				c-5.9,0.2-12.5,0.2-18.3,0.2c-1.1,0-5.8,0-8.8,0c-3.1,7.1-4.8,14.7-4.8,22.5c0,7,1.3,13.7,3.9,20.1c26.2-0.2,51.5-0.9,75.2-2.1
				C252.1,483.4,260,482.8,266.7,478.7z"/>
		</g>
		<polygon class="st0" points="280.2,392.3 282.6,391.5 282.6,367.2 280.2,370.6 		"/>
		<polygon class="st0" points="280.2,392.3 282.6,391.5 286.4,393.4 286.4,394.8 		"/>
		<polygon class="st0" points="286.4,362.1 282.6,367.2 282.6,391.5 286.4,393.4 		"/>
	</g>
</g>
</svg>
