<?xml version="1.0" encoding="utf-8"?>
<!-- Generator: Adobe Illustrator 24.1.1, SVG Export Plug-In . SVG Version: 6.00 Build 0)  -->
<svg version="1.1" id="Capa_1" xmlns="http://www.w3.org/2000/svg" xmlns:xlink="http://www.w3.org/1999/xlink" x="0px" y="0px"
	 viewBox="0 0 2500 2500" style="enable-background:new 0 0 2500 2500;" xml:space="preserve">
<style type="text/css">
	.st0{fill-rule:evenodd;clip-rule:evenodd;fill:none;}
	.st1{fill:#FFFFFF;}
	.st2{fill-rule:evenodd;clip-rule:evenodd;fill:#FFFFFF;}
</style>
<path class="st0" d="M0,0h2500v2500H0V0z"/>
<path class="st1" d="M1250,210.9L1250,210.9c286.2,0,546,116.7,734.2,304.9c188.2,188.2,304.9,448,304.9,734.1v0.1
	c0,286.2-116.7,545.9-304.9,734.2c-188.2,188.2-448,304.9-734.1,304.9h-0.1c-286.2,0-545.9-116.7-734.2-304.9
	c-188.2-188.2-304.9-448-304.9-734.1v-0.1c0-286.2,116.7-546,305-734.2C704,327.6,963.8,210.8,1250,210.9L1250,210.9L1250,210.9
	L1250,210.9z M1250,235.8L1250,235.8c-279.3,0-532.9,113.9-716.6,297.6C349.7,717.1,235.8,970.7,235.8,1250v0.1
	c0,279.3,113.9,532.8,297.6,716.5c183.7,183.7,437.3,297.6,716.6,297.6h0.1c279.3,0,532.8-113.9,716.5-297.6
	c183.7-183.7,297.6-437.3,297.6-716.6v-0.1c0-279.3-113.9-532.8-297.6-716.5C1782.9,349.7,1529.3,235.8,1250,235.8L1250,235.8z"/>
<path class="st2" d="M473.4,635.5l13.5-15.5l32.8-1.2l-3.6-32.5l13.4-15.4l19.3,49l-24.2,27.8L473.4,635.5z M854.6,632.4
	l-85.7-175.7l47.4-23.1l38.9,79.8l16.7-106.9l55.8-27.2l-23.1,117.4l114.4,55.6l-59.7,29.2l-95.7-50.9l38.4,78.9L854.6,632.4
	L854.6,632.4z M1230.8,478.5c14.8,0,27-5.4,36.6-16.3c9.6-10.9,14.5-24.6,14.5-41.2c0-16.4-4.9-30.1-14.7-41
	c-9.8-10.9-22-16.4-36.4-16.4c-14.8,0-27,5.5-36.6,16.4c-9.7,10.9-14.5,24.6-14.5,41.1c0,16.7,4.7,30.5,14.3,41.3
	C1203.4,473.1,1215.7,478.5,1230.8,478.5L1230.8,478.5z M1335.1,421.1c0.1,13.6-2.5,27-7.8,39.5c-5.2,12.4-12.9,23.6-22.5,33
	c-9.9,9.5-21.4,17.1-34.1,22.2c-12.8,5.2-26.1,7.8-39.9,7.8c-13.7,0-27.4-2.6-40.1-7.8c-12.6-5.1-24.1-12.7-33.7-22.2
	c-9.8-9.4-17.6-20.7-22.9-33.2c-5.2-12.3-7.8-25.5-7.8-39.4c0-14,2.6-27.1,7.8-39.5c5.2-12.3,12.9-23.3,22.9-33
	c9.7-9.6,21.1-17.2,33.7-22.3c12.7-5.2,26.3-7.8,40.1-7.8c13.9,0,27.2,2.6,40.1,7.8c12.7,5.1,24.2,12.7,34,22.3
	C1324.4,367.6,1335.3,393.8,1335.1,421.1L1335.1,421.1z M1543.8,528.7l8.2,3.5c19.2,8.2,35,10.2,47.2,6
	c12.2-4.1,21.9-14.8,29.2-32.1c7.3-17.2,8.3-31.7,2.8-43.5c-5.4-11.8-17.8-21.8-37.1-30l-8.2-3.5L1543.8,528.7L1543.8,528.7z
	 M1478.2,548.5l76.3-180l37.4,15.9c27.9,11.9,47.1,21.6,57.6,29.1c9.9,7,18.4,15.9,25,26.1c7.9,12.5,12.4,26.8,13,41.6
	c0.6,14.9-2.4,30.4-9.2,46.2c-6.7,15.9-15.7,28.8-26.9,38.8c-11,9.8-24.4,16.6-38.9,19.5c-11.6,2.4-23.6,2.5-35.2,0.3
	c-12.3-2.2-30.1-8.2-53.4-18.2l-8.3-3.5L1478.2,548.5L1478.2,548.5z M1738,683.6l193-74l42.9,51.2l-106.3,177.4l-34-40.6l20.4-30.1
	l-48.6-58l-33.3,14.7L1738,683.6L1738,683.6z M1841.9,693.9l34.1,40.6l36.6-56.7c1.1-1.7,2.9-4.4,5.6-8l10.2-14
	c-4.4,2.2-8.6,4.3-12.7,6.2c-4,2-7.9,3.8-11.8,5.5L1841.9,693.9L1841.9,693.9z M619.4,772c12-0.1,22.2-1.6,30.6-4.5
	c8.4-2.9,15.1-7.2,20.1-13c4.7-5.4,7.1-11.1,7.2-17c0.3-5.7-2.1-11.1-6.5-14.7c-4.9-4.3-10-6.1-15.2-5.4
	c-5.3,0.7-13.9,5.1-25.9,13.2c-16.4,11.1-30.4,16.9-41.8,17.4c-11.4,0.5-22.6-3.9-33.5-13.4c-14.1-12.3-21.5-27-22.2-44.2
	c-0.7-17.2,5.5-33.3,18.6-48.3c6.8-7.9,14.6-14.7,23.4-20.3c8.6-5.4,18.1-9.5,27.9-12.1l18,37.7c-7.3,1-14.4,3.2-21,6.4
	c-5.8,2.9-11,6.8-15.3,11.7c-4.2,4.9-6.5,9.8-6.8,14.8c-0.3,5,1.3,9.1,5,12.3c3.7,3.2,7.8,4.5,12.3,3.7c4.5-0.7,11.1-4,19.7-9.8
	l2.1-1.4c18.7-12.6,32.9-19.1,42.7-19.7c6.8-0.3,13.7,0.8,20,3.4c7,2.8,13.5,6.9,19.2,11.9c15.6,13.6,23.8,29.7,24.3,48.2
	c0.6,18.6-6.5,36.4-21.4,53.5c-8.9,10.3-18.8,18.1-29.6,23.5c-10.8,5.4-23.4,8.7-37.6,10L619.4,772L619.4,772z M1247.6,2110.6
	c58.6,27.2,97,63.9,129.5,116.8c1.6-56.9-32.6-94.8-76.9-127.4c15.2-0.3,30.4-0.7,45.5-1c36,21.9,74.4,42.1,129.4,50.5
	c67.4-8.1,120-31,157.8-68.8c-31.7-18.9-66.7-24.3-109.2,0c-46.4,17.8-81.6,18-109.2,6.1c40.1-12.5,80.2-25,120.3-37.4
	c20.9-6.1,41.8-12.2,62.7-18.2c25,8.8,49.9,17.5,74.8,26.3c14.2,16.2,27,20.2,38.4,12.2c14.2-6.1,16.2-18.9,6.1-38.4
	c-12.1-9.5-24.3-10.8-36.4-4.1l-52.6-18.2l45.5-19.2c55.3,12.8,108.5,12.2,163.8-18.2c39.3-27.8,75-60.9,106.2-102.1
	c-33.3-9.9-61.8-3.6-87,16.2c-39.3,42.6-89.4,59.3-131.5,66.7c46.2-39.4,99.5-81.9,145.6-121.3l60.7,8.1c16.2,4,29.7,2.7,40.4-4
	c23-38.6,1.1-41.5-27.3-39.5c-6.4,5.7-10.8,13.5-17.2,19.2c-9.5-3.4-30,0.3-39.4-3c13.5-12.8,36.1-34.7,49.5-47.5
	c69.6-17,118.1-63.5,160.8-118.3c-13.5-3.4-27-6.8-40.5-10.1c3.4-8.8,10.8-16.2,22.3-22.2l25.3-13.2c6.7-28.3-4-39.1-32.4-32.4
	l-16.2,32.4c-8.8,11.5-15.2,15.9-21.2,19.2c-0.3-15.2-0.7-30.3-1-45.5l-36.4,20.2c-4.5-21.9,5.3-34.4,17.2-45.5
	c-4.4-30.6-16.9-37-37.4-19.2c5.2,23.8,1,38.1-12.6,43l-19.7-20.7c-37.6,56.8-43.6,122.8-35.4,193.2l-43.5,51.6l-10.1-58.6
	l12.1-14.2c-5.4-40.5-39.1-40.5-44.5-12.1c-3.4,8-4.4,17.1,11.1,33.4c2.7,23.6,5.4,47.2,8.1,70.8c-44.8,37.4-88.7,81.9-133.5,119.3
	c-0.7-3.4-2.4-13.8-3-17.2c21-35.5,41-71.1,80.9-93c12.5-28,20.2-52.6,12.1-76.9c-54.5,38.1-99.2,81.8-129.4,133.5
	c-4.4,23.9-8.8,47.9-13.2,71.8c-16.9,10.8-33.7,21.5-50.6,32.3c0.3-14.5,8.8-29,9.1-43.5c40.1-51.1-18.9-71.6-33.4-25.3
	c5.1,30,5.1,54.3-6.1,78.9c-59,23.2-111.9,46.5-170.9,69.8c-0.3-5.1,6.4-19.2,6.1-24.3c33.7-32.4,63.7-45.5,116.3-53.6
	c22.6-18.5,31.7-37.8,27.3-61.7c-48.3,8.7-96.3,22-136.5,49.5c-37.7,23.3-62.3,54.6-67.7,94.1c-22.9,2-45.8,4-68.8,6.1
	c14.5-15.9,29-31.7,43.5-47.5c7.8-3.7,15.5-7.4,23.3-11.1c9.9-44.3-11.1-43.6-36.4-36.4c-7.8,8.6-10.8,19-10.1,30.3
	c-16.2,17.5-32.3,35.1-54.7,46l-54.7-59.2c2.2-11.5-1.2-21.6-10.1-30.3c-25.3-7.2-46.3-7.9-36.4,36.4c8.4,8,16.3,12.9,23.3,11.1
	c14.5,15.9,29,31.7,43.5,47.5c-22.9-2-45.8-4-68.8-6.1c-5.4-39.4-30-70.8-67.8-94c-40.2-27.6-88.2-40.9-136.5-49.5
	c-4.4,23.9,4.7,43.1,27.3,61.7c52.6,8.1,82.6,21.2,116.3,53.6c-0.4,5.1,6.4,19.2,6.1,24.3c-59-23.3-111.9-46.5-170.9-69.8
	c-11.1-24.6-11.1-48.9-6.1-78.9c-14.5-46.3-73.4-25.8-33.4,25.3c0.3,14.5,8.8,29,9.1,43.5c-16.9-10.8-33.7-21.6-50.6-32.3
	l-13.2-71.8c-30.3-51.7-74.9-95.3-129.4-133.5c-8.1,24.2-0.4,48.8,12.1,76.9c39.9,22,59.9,57.5,80.9,93c-0.7,3.4-2.4,13.8-3,17.2
	c-44.8-37.4-88.6-81.9-133.5-119.3l8.1-70.8c15.6-16.3,14.5-25.3,11.1-33.4c-5.4-28.4-39.1-28.4-44.5,12.1l12.1,14.2l-10.1,58.6
	l-43.5-51.6c8.3-70.3,2.2-136.4-35.4-193.1c-6.6,6.9-13.2,13.8-19.7,20.7c-13.6-4.9-17.8-19.2-12.6-43c-20.5-17.9-33-11.5-37.4,19.2
	c11.9,11.1,21.6,23.6,17.2,45.5c-12.1-6.8-24.3-13.5-36.4-20.2l-1,45.5c-6-3.3-12.4-7.7-21.2-19.2c-5.4-10.8-10.8-21.6-16.2-32.3
	c-28.3-6.7-39.1,4-32.4,32.3c8.4,4.4,16.9,8.8,25.3,13.2c11.5,6,18.9,13.5,22.3,22.2l-40.5,10.1c42.6,54.8,91.2,101.3,160.8,118.3
	c13.5,12.8,36.1,34.7,49.6,47.5c-9.4,3.4-30-0.3-39.4,3c-6.4-5.7-10.8-13.5-17.2-19.2c-28.4-2.1-50.3,0.9-27.3,39.4
	c10.8,6.7,24.3,8.1,40.5,4c20.2-2.7,40.5-5.4,60.7-8.1c46.2,39.4,99.5,81.9,145.6,121.3c-42-7.5-92.1-24.1-131.5-66.8
	c-25.2-19.8-53.7-26.1-87-16.2c31.2,41.3,66.9,74.3,106.2,102.1c55.3,30.4,108.5,31,163.8,18.2l45.5,19.2
	c-17.5,6.1-35.1,12.1-52.6,18.2c-12.2-6.8-24.3-5.4-36.4,4c-10.1,19.5-8.1,32.3,6.1,38.4c11.5,8.1,24.3,4,38.4-12.1
	c24.9-8.8,49.9-17.5,74.8-26.3l62.7,18.2c40.1,12.5,80.2,25,120.3,37.4c-27.6,11.9-62.8,11.7-109.2-6.1
	c-42.5-24.3-77.5-18.9-109.2,0c37.8,37.7,90.3,60.6,157.8,68.8c55-8.4,93.4-28.6,129.5-50.5c15.1,0.3,30.3,0.6,45.5,1
	c-44.3,32.6-78.5,70.5-76.8,127.4C1150.5,2161.3,1189,2124.6,1247.6,2110.6L1247.6,2110.6z"/>
<path class="st2" d="M1770.3,1596.3c-19.7-47.7-188.4-166-210.4-45.4l-60.7-11.5c130.6-278.2,91-803.4-214.7-854.9
	c-46.6-7.6-236.5,42.6-149.7,106.8c58.6,43.4,90.9,71,120.4,138.4l-25.7,15c-48.6-64-106.2-130.1-172.7-167.6
	c-71.2-38-237.4,149.5-216.7,158.1c66.5,31.2,152.5,71.5,201.4,106.8l-21.1,33.7c-67.5-39.2-175.3-92.9-229.5-89.6
	c-27.8,4-87.9,198.9-57.6,206.4c62.7,5.2,180,68.3,233.9,95.7c37.8,30,153.2,224.4,106.7,252.1c-14.9,8.9-61.5-1.4-108.6-24.8
	c-216.5-88-233,9.9-192.3,39.9c32.6,20.3,21.5,56.3,23,65.5c-1.7,54.4,56.5,97.2,168.8,20.8c230.3,3,361.2,7.8,591.8,11.3
	C1577.8,1720.7,1723.3,1652.3,1770.3,1596.3L1770.3,1596.3z M1413.3,1338.2c25.7,25.7,26.2,67.1,1,92.2
	c-25.1,25.1-66.5,24.6-92.2-1.1c-25.7-25.7-26.1-67.1-1-92.2C1346.1,1312,1387.6,1312.5,1413.3,1338.2z"/>
<path class="st1" d="M1256,567.5L1256,567.5c189.6,0,361.8,77.3,486.5,202.1c124.7,124.7,202,296.8,202,486.4v0.1
	c0,189.6-77.3,361.7-202.1,486.4c-124.7,124.7-296.8,202-486.4,202h-0.1c-189.6,0-361.7-77.3-486.4-202.1
	c-124.7-124.7-202-296.8-202-486.4v-0.1c0-189.6,77.3-361.7,202.1-486.4C894.3,644.9,1066.4,567.6,1256,567.5L1256,567.5L1256,567.5
	z M1256.1,592.5L1256.1,592.5c-182.8,0-348.7,74.5-468.9,194.7C667,907.4,592.4,1073.3,592.4,1256v0.1
	c0,182.7,74.5,348.6,194.7,468.8c120.2,120.2,286.1,194.8,468.8,194.8h0.1c182.7,0,348.6-74.5,468.8-194.7
	c120.2-120.2,194.8-286.1,194.8-468.8v-0.1c0-182.7-74.5-348.6-194.7-468.8C1604.7,667,1438.8,592.5,1256.1,592.5L1256.1,592.5z"/>
</svg>
