<?xml version="1.0" encoding="utf-8"?>
<!-- Generator: Adobe Illustrator 24.1.1, SVG Export Plug-In . SVG Version: 6.00 Build 0)  -->
<svg version="1.1" id="Capa_1" xmlns="http://www.w3.org/2000/svg" xmlns:xlink="http://www.w3.org/1999/xlink" x="0px" y="0px"
	 viewBox="0 0 6931 2500" style="enable-background:new 0 0 6931 2500;" xml:space="preserve">
<style type="text/css">
	.st0{fill-rule:evenodd;clip-rule:evenodd;fill:#FFFFFF;}
</style>
<path class="st0" d="M1250.4,342.8c498.9,0,906.8,407.8,906.8,907.6c0,498.9-407.8,905.9-906.8,905.9s-906.7-407-906.7-905.9
	C343.7,750.7,751.5,342.8,1250.4,342.8L1250.4,342.8z M643.4,762.6l325.2,843.7l119.2-308.2h312.5l119.2,308.2l328.7-854
	c-58-70-127.7-129.3-206.1-175.4l-228.2,628.3H1092L863,574.4C778.7,622.9,704.7,686.8,643.4,762.6L643.4,762.6z M1979.2,974.6
	l-370.4,966.4c248.6-130.3,419.7-390.8,419.7-690.5C2028.6,1153.4,2011.6,1060.6,1979.2,974.6z M1447.1,2003.9l-2.5-19.6l-201-521.1
	l-200.9,521.1l-0.8,16.2c66.4,18.7,136.2,28.1,208.6,28.1C1318.5,2028.6,1384.1,2020.1,1447.1,2003.9z M876.7,1932.4l-361-940.8
	c-28.9,80.9-44.3,167.7-44.3,258.8C471.4,1543.3,634.9,1800.4,876.7,1932.4L876.7,1932.4z M1250.4,471.4
	c68.1,0,135.4,8.5,199.2,25.5L1253,1041l-197.5-544.9C1119.1,479.6,1184.7,471.3,1250.4,471.4z"/>
<path class="st0" d="M3013.4,1536.1h-119.3l-185.6-504.2h120.5l95.7,284.5c11.3,33.4,21.1,67.3,29.7,101.6c8.6-34.9,17.7-65.3,29-98
	l99.4-288H3202L3013.4,1536.1z M3428.3,1379.7c0,41.7-29.7,79.5-74.1,79.5c-38.8,0-74.9-32.7-74.9-78.1c0-42.5,28.2-80.3,74.1-80.3
	C3395.2,1301.1,3428.3,1335,3428.3,1379.7L3428.3,1379.7z M3530.2,1379.7c0-95.7-74.4-166-176-166c-105.6,0-176.8,73.2-176.8,165.5
	c0,98,75.6,167.4,171.8,167.4C3465.1,1546.6,3530.2,1464.1,3530.2,1379.7z M3607.5,1536.1v-532.2h100.9v532.2H3607.5L3607.5,1536.1z
	 M3997.4,1536.1l-98-145.8v145.8h-100.9v-532.2h100.9v348.8l98-127.7h123.5l-120,143.4l128.6,167.7H3997.4z M4280.9,1545.4
	c-71.4,0-108.5-23.3-127.7-73.9l85.4-33.4c7.9,20.6,24.3,35.4,45.2,35.4c20.1,0,32.4-7.9,32.4-21.4c0-45.4-152.5-25.5-152.5-134
	c0-56.7,46.2-103.6,125.7-103.6c58.7,0,99.7,21.4,120.3,73.2l-80.8,31.2c-9.8-24.8-27.3-32.7-43.7-32.7c-13,0-27.5,7.9-27.5,22.1
	c0,49.6,152.7,27,152.7,136C4410.5,1507.8,4354.6,1545.4,4280.9,1545.4L4280.9,1545.4z M4897.8,1536.1h-95.3l-53.3-152.9
	c-5.6-15.2-9.8-30.9-12.8-46.9c-3.2,16.2-7.6,31.9-12.8,47.6l-53.3,152.2h-99.4l-134.3-311.8h105.1l58.9,150.2
	c7.1,16.9,12,36.1,17.7,54.7c4.9-18.4,9.8-38.3,15-53.3l52.5-151.7h103.8l49.1,141.7c7.1,21.4,13.5,41.2,17.7,61.9
	c7.1-23.3,14.2-44.2,21.4-61.9l55.5-141.7h103.1L4897.8,1536.1L4897.8,1536.1z M5306.6,1385.6c0,42.7-27.7,81.7-74.6,81.7
	c-48.4,0-77.6-39-77.6-85.2c0-47.6,31.9-79.5,73.9-79.5C5276.2,1302.3,5306.6,1340.6,5306.6,1385.6z M5402.6,1536.1v-311h-99.4v36.1
	c-17.2-26.3-54-46.2-97.5-46.2c-96.5,0-154.7,71.7-154.7,169.6c0,94.5,55.2,162,145.6,162c48.4,0,81-16.9,106.8-42.7v31.9
	L5402.6,1536.1L5402.6,1536.1z M5728.8,1376.5c0,42-26.3,78.8-70.9,78.8c-46.9,0-75.1-31.9-75.1-78.1c0-41.2,29.2-76.1,71.7-76.1
	C5705.5,1301.1,5728.8,1343.1,5728.8,1376.5z M5825.6,1506.4v-281.6h-99.4v35.4c-19.1-30.4-54.5-43.9-98-43.9
	c-84.5,0-149,69.5-149,163c0,82.2,46.9,154.2,146.1,154.2c39,0,73.2-11.3,100.7-42v43.9c0,50.6-22.6,77.8-69.5,77.8
	c-30.4,0-59.7-19.1-59.7-46.4h-99.9c0,68.5,56,121.8,153.2,121.8c56.7,0,99.9-13.5,134.5-46.9
	C5815.8,1610.2,5825.6,1575.3,5825.6,1506.4L5825.6,1506.4z M6125.6,1345.1h-124.7c3.4-34.6,27.7-59.9,64.1-59.9
	C6102.7,1285.2,6125.6,1315.4,6125.6,1345.1z M6225,1376.2c0-103.4-64.8-162.5-159.6-162.5c-97,0-163,72.9-163,168.9
	c0,109.7,78.1,164,162.3,164c71.9,0,117.1-24.8,153.2-71.9l-64.8-42.7c-20.4,27.2-45.4,40.5-77.6,40.5c-43.5,0-73.4-29.5-75.6-67.8
	h224.4C6225,1392.4,6225,1381.9,6225,1376.2z M6511.2,1536.1v-172.3c0-28.5-9.1-61.1-47.4-61.1c-19.9,0-61.4,11.5-61.4,69.7v163.7
	h-100.9v-311.5h100.9v41c14.7-20.6,43.7-48.1,100.4-48.1c39.8,0,65.3,14.2,81.8,30.4c19.9,19.9,27.7,45.4,27.7,90.8v197.1
	L6511.2,1536.1L6511.2,1536.1z"/>
</svg>
