<?xml version="1.0" encoding="utf-8"?>
<!-- Generator: Adobe Illustrator 24.1.1, SVG Export Plug-In . SVG Version: 6.00 Build 0)  -->
<svg version="1.1" id="Capa_1" xmlns="http://www.w3.org/2000/svg" xmlns:xlink="http://www.w3.org/1999/xlink" x="0px" y="0px"
	 viewBox="0 0 2500 849.9" style="enable-background:new 0 0 2500 849.9;" xml:space="preserve">
<style type="text/css">
	.st0{fill-rule:evenodd;clip-rule:evenodd;fill:none;}
	.st1{clip-path:url(#SVGID_2_);}
	.st2{clip-path:url(#SVGID_4_);}
	.st3{clip-path:url(#SVGID_6_);}
	.st4{clip-path:url(#SVGID_8_);}
	.st5{fill-rule:evenodd;clip-rule:evenodd;fill:#295CA7;}
	.st6{fill-rule:evenodd;clip-rule:evenodd;}
</style>
<path class="st0" d="M0,0h2500v849.9H0V0z"/>
<path class="st0" d="M1853.3,449.7c0-167.6,135.8-303.4,303.4-303.4c167.6,0,303.4,135.8,303.4,303.4s-135.9,303.4-303.4,303.4
	S1853.3,617.3,1853.3,449.7L1853.3,449.7z"/>
<g>
	<g>
		<defs>
			<circle id="SVGID_1_" cx="2156.8" cy="449.7" r="306.5"/>
		</defs>
		<clipPath id="SVGID_2_">
			<use xlink:href="#SVGID_1_"  style="overflow:visible;"/>
		</clipPath>
		<g class="st1">
			<g>
				<g>
					<defs>
						<rect id="SVGID_3_" x="1850.3" y="143.2" width="613" height="613"/>
					</defs>
					<clipPath id="SVGID_4_">
						<use xlink:href="#SVGID_3_"  style="overflow:visible;"/>
					</clipPath>
					<g class="st2">
					</g>
				</g>
			</g>
		</g>
	</g>
</g>
<g>
	<g>
		<defs>
			<circle id="SVGID_5_" cx="2156.8" cy="449.7" r="306.5"/>
		</defs>
		<clipPath id="SVGID_6_">
			<use xlink:href="#SVGID_5_"  style="overflow:visible;"/>
		</clipPath>
		<g class="st3">
			<g>
				<g>
					<defs>
						<rect id="SVGID_7_" x="1850.3" y="143.2" width="613" height="613"/>
					</defs>
					<clipPath id="SVGID_8_">
						<use xlink:href="#SVGID_7_"  style="overflow:visible;"/>
					</clipPath>
					<g class="st4">
					</g>
				</g>
			</g>
		</g>
	</g>
</g>
<path class="st5" d="M2161.1,240.4c19.3,0,38,2.6,55.8,7.4l-59.2,132.5l-58.1-130.8C2119.5,243.2,2139,240.4,2161.1,240.4z
	 M2123.8,456.1l-40.6,90.1l-96.1-215.9c16.3-23,36.9-42.6,60.7-57.6l77.8,175.4h69.9l78.2-175.5c19.2,12,36.3,26.9,50.9,44.2
	c2,2.5,4,5.1,5.9,7.8l-98.9,221.6l-40.3-90.1H2123.8L2123.8,456.1L2123.8,456.1z M2061.7,643.1c-67.9-35.8-114.2-107.1-114.2-189.1
	c0-19.7,2.4-38.3,7.4-56.4l110,247.1C2063.6,644.1,2063,643.7,2061.7,643.1z M2157.3,665.6c-18.8,0-37.3-2.4-55.3-7.2l58.3-131.9
	l58.4,130.3C2198.8,662.6,2178.1,665.6,2157.3,665.6z M2258.4,640.3l107-240.3c4.1,16.7,6.2,33.9,6.2,51.3
	C2371.6,530.3,2328.1,602.9,2258.4,640.3z M2160.9,718.6c145.9,0,264.5-118.6,264.5-264.5s-118.6-264.5-264.5-264.5
	s-264.5,118.7-264.5,264.5S2015,718.6,2160.9,718.6L2160.9,718.6z"/>
<path class="st6" d="M161,565.6h-48.6L36.8,360.2h49.1l39,115.9c4.6,13.6,8.6,27.4,12.1,41.4c3.5-14.2,7.2-26.6,11.8-39.9
	l40.5-117.3h48.5L161,565.6z M330,501.9c0,17-12.1,32.4-30.2,32.4c-15.8,0-30.5-13.3-30.5-31.8c0-17.3,11.5-32.7,30.2-32.7
	C316.5,469.9,330,483.7,330,501.9L330,501.9z M371.5,501.9c0-39-30.3-67.6-71.7-67.6c-43,0-72,29.8-72,67.4
	c0,39.9,30.8,68.2,70,68.2C345,569.9,371.5,536.3,371.5,501.9z M403,565.6V348.8h41.1v216.8H403L403,565.6z M561.8,565.6l-39.9-59.4
	v59.4h-41.1V348.8h41.1v142.1l39.9-52h50.3l-48.9,58.4l52.4,68.3H561.8z M677.3,569.4c-29.1,0-44.2-9.5-52-30.1l34.8-13.6
	c3.2,8.4,9.9,14.4,18.4,14.4c8.2,0,13.2-3.2,13.2-8.7c0-18.5-62.1-10.4-62.1-54.6c0-23.1,18.8-42.2,51.2-42.2
	c23.9,0,40.6,8.7,49,29.8l-32.9,12.7c-4-10.1-11.1-13.3-17.8-13.3c-5.3,0-11.2,3.2-11.2,9c0,20.2,62.2,11,62.2,55.4
	C730.1,554.1,707.3,569.4,677.3,569.4L677.3,569.4z M928.6,565.6h-38.8l-21.7-62.3c-2.3-6.2-4-12.6-5.2-19.1
	c-1.3,6.6-3.1,13-5.2,19.4l-21.7,62h-40.5l-54.7-127h42.8l24,61.2c2.9,6.9,4.9,14.7,7.2,22.3c2-7.5,4-15.6,6.1-21.7l21.4-61.8h42.3
	l20,57.7c2.9,8.7,5.5,16.8,7.2,25.2c2.9-9.5,5.8-18,8.7-25.2l22.6-57.7h42L928.6,565.6L928.6,565.6z M1095.1,504.3
	c0,17.4-11.3,33.3-30.4,33.3c-19.7,0-31.6-15.9-31.6-34.7c0-19.4,13-32.4,30.1-32.4C1082.7,470.4,1095.1,486,1095.1,504.3z
	 M1134.2,565.6V438.9h-40.5v14.7c-7-10.7-22-18.8-39.7-18.8c-39.3,0-63,29.2-63,69.1c0,38.5,22.5,66,59.3,66
	c19.7,0,33-6.9,43.5-17.4v13L1134.2,565.6L1134.2,565.6z M1267.1,500.6c0,17.1-10.7,32.1-28.9,32.1c-19.1,0-30.6-13-30.6-31.8
	c0-16.8,11.9-31,29.2-31C1257.6,469.9,1267.1,487,1267.1,500.6z M1306.5,553.5V438.8H1266v14.4c-7.8-12.4-22.2-17.9-39.9-17.9
	c-34.4,0-60.7,28.3-60.7,66.4c0,33.5,19.1,62.8,59.5,62.8c15.9,0,29.8-4.6,41-17.1v17.9c0,20.6-9.2,31.7-28.3,31.7
	c-12.4,0-24.3-7.8-24.3-18.9h-40.7c0,27.9,22.8,49.6,62.4,49.6c23.1,0,40.7-5.5,54.8-19.1C1302.5,595.8,1306.5,581.6,1306.5,553.5
	L1306.5,553.5z M1428.7,487.8h-50.8c1.4-14.1,11.3-24.4,26.1-24.4C1419.4,463.4,1428.7,475.7,1428.7,487.8z M1469.2,500.5
	c0-42.1-26.4-66.2-65-66.2c-39.5,0-66.4,29.7-66.4,68.8c0,44.7,31.8,66.8,66.1,66.8c29.3,0,47.7-10.1,62.4-29.3l-26.4-17.4
	c-8.3,11.1-18.5,16.5-31.6,16.5c-17.7,0-29.9-12-30.8-27.6h91.4C1469.2,507.1,1469.2,502.8,1469.2,500.5z M1585.8,565.6v-70.2
	c0-11.6-3.7-24.9-19.3-24.9c-8.1,0-25,4.7-25,28.4v66.7h-41.1V438.7h41.1v16.7c6-8.4,17.8-19.6,40.9-19.6c16.2,0,26.6,5.8,33.3,12.4
	c8.1,8.1,11.3,18.5,11.3,37v80.3L1585.8,565.6L1585.8,565.6z"/>
</svg>
